<svg width="37" height="38" viewBox="0 0 37 38" fill="none" xmlns="http://www.w3.org/2000/svg">
<path d="M34.8967 11.8412C34.2195 10.2928 33.3234 8.84982 32.2354 7.55653C30.6273 5.58763 28.6205 3.9816 26.3469 2.84418C24.0734 1.70677 21.5847 1.06374 19.0447 0.957407C16.5048 0.851075 13.9711 1.28385 11.6104 2.22728C9.24981 3.1707 7.11572 4.60336 5.34867 6.43098C3.5816 8.25858 2.22161 10.4397 1.35822 12.8308C0.494833 15.2218 0.147601 17.7687 0.3394 20.3036C0.531213 22.8386 1.25768 25.3041 2.47101 27.538C3.68435 29.7721 5.35704 31.7237 7.37898 33.2646C8.67636 34.2731 10.1099 35.0929 11.637 35.6997C13.778 36.5771 16.0695 37.029 18.3834 37.0303C23.1596 37.0198 27.7368 35.1159 31.1117 31.7361C34.4865 28.3562 36.3836 23.7763 36.387 19.0001C36.3905 16.5364 35.8831 14.0988 34.8967 11.8412ZM18.3701 4.61579C20.448 4.61558 22.5008 5.06973 24.3846 5.94644C23.9253 6.14493 23.4422 6.28357 22.9475 6.35895C21.3196 6.59459 19.8116 7.35037 18.6485 8.51349C17.4853 9.67659 16.7295 11.1847 16.4939 12.8126C16.3905 13.7255 15.9752 14.5749 15.3183 15.2173C14.6613 15.8598 13.8029 16.2558 12.8878 16.3388C11.2599 16.5744 9.75187 17.3302 8.58876 18.4934C7.42566 19.6565 6.66987 21.1645 6.43422 22.7924C6.35444 23.6605 5.98405 24.4763 5.38301 25.1077C4.34597 22.9166 3.88011 20.4985 4.02877 18.0789C4.17743 15.6592 4.93578 13.3165 6.23325 11.2686C7.53071 9.22089 9.32514 7.53459 11.4495 6.36672C13.5739 5.19885 15.9592 4.58738 18.3834 4.58918L18.3701 4.61579ZM7.36567 28.3146C7.52535 28.1682 7.68503 28.0352 7.84471 27.8755C9.02851 26.7278 9.78839 25.2127 10.0003 23.5775C10.0863 22.6583 10.4967 21.7998 11.158 21.1557C11.7944 20.4933 12.651 20.0863 13.5665 20.0114C15.1944 19.7757 16.7024 19.0199 17.8655 17.8568C19.0286 16.6937 19.7844 15.1856 20.0201 13.5577C20.0777 12.5963 20.4902 11.6906 21.1778 11.0162C21.8299 10.3667 22.6946 9.97444 23.6128 9.91176C25.1084 9.706 26.5031 9.04114 27.6048 8.00895C28.8592 9.04961 29.9218 10.3015 30.7451 11.7081C30.6945 11.7764 30.6365 11.8389 30.5721 11.8944C29.937 12.5627 29.0815 12.9786 28.1636 13.0654C26.534 13.2969 25.0237 14.0514 23.8598 15.2152C22.696 16.3791 21.9415 17.8894 21.71 19.519C21.6162 20.435 21.2086 21.2905 20.5563 21.9404C19.9039 22.5904 19.047 22.9948 18.1306 23.0852C16.4979 23.319 14.9843 24.0733 13.8144 25.2359C12.6446 26.3986 11.8809 27.9076 11.637 29.5388C11.5654 30.1891 11.342 30.8135 10.985 31.3618C9.61977 30.5511 8.39704 29.5218 7.36567 28.3146ZM18.3701 33.4509C17.0199 33.4524 15.6761 33.2642 14.3782 32.892C14.8222 32.0644 15.1108 31.1623 15.2298 30.2307C15.3231 29.3167 15.7288 28.4628 16.3784 27.8132C17.028 27.1636 17.8819 26.7579 18.7959 26.6646C20.4262 26.4316 21.9373 25.677 23.1031 24.5136C24.2687 23.3504 25.0265 21.8407 25.2628 20.211C25.3561 19.2969 25.7618 18.4431 26.4115 17.7934C27.0611 17.1438 27.9149 16.7381 28.829 16.6448C30.0558 16.4853 31.2252 16.0285 32.2354 15.3142C32.7964 17.4404 32.8628 19.6669 32.4297 21.8228C31.9966 23.9787 31.0752 26.0069 29.7366 27.7515C28.398 29.4959 26.6776 30.9108 24.7072 31.8872C22.7369 32.8637 20.5691 33.3758 18.3701 33.3844V33.4509Z" fill="#4B5567"/>
</svg>
